<?xml version="1.0" encoding="utf-8"?>
<!-- Generator: Adobe Illustrator 27.2.0, SVG Export Plug-In . SVG Version: 6.00 Build 0)  -->
<svg version="1.1" id="Layer_1" xmlns="http://www.w3.org/2000/svg" xmlns:xlink="http://www.w3.org/1999/xlink" x="0px" y="0px"
	 viewBox="0 0 1200 900" style="enable-background:new 0 0 1200 900;" xml:space="preserve">
<style type="text/css">
	.st0{fill:#0000F9;}
	.st1{fill:#9500FF;}
	.st2{fill:#FFFFFF;}
	.st3{fill:#12C9C9;}
	.st4{fill:url(#SVGID_1_);}
	.st5{clip-path:url(#SVGID_00000065041269786857240120000007065834284196072623_);}
	.st6{clip-path:url(#SVGID_00000021835740584894032030000001993515463165663126_);}
	.st7{fill:#82BF00;}
	.st8{fill:#0092FF;}
	.st9{clip-path:url(#SVGID_00000031915968042604220600000004799930331202787501_);}
	.st10{fill:#00A39D;}
	.st11{clip-path:url(#SVGID_00000015313335827700866010000007887717787868433311_);}
	.st12{clip-path:url(#SVGID_00000090996197236985599080000007418301225292813184_);}
	.st13{clip-path:url(#SVGID_00000112595545620793846050000006920580658220221072_);}
	.st14{clip-path:url(#SVGID_00000043432350467794893890000018164772985687886001_);}
	.st15{fill:#1E294F;}
	.st16{fill:#FF9F06;}
	.st17{fill:#387CF4;}
	.st18{fill:url(#SVGID_00000116210459635306858340000006359706824428296368_);}
	.st19{fill:url(#SVGID_00000172431560091937736510000004607994982863720882_);}
	.st20{fill:#2797D4;}
	.st21{fill:url(#SVGID_00000023969833653293211810000018376903981171905937_);}
	.st22{fill:#0E1036;}
	.st23{fill:url(#SVGID_00000008117461395110388170000009159741899408670095_);}
	.st24{fill:url(#SVGID_00000039125649845921721510000016305438469986284688_);}
	.st25{fill:url(#SVGID_00000127746114723484334160000010403615314600803232_);}
</style>
<rect y="0" class="st0" width="1200" height="900"/>
<g>
	<g>
		<g>
			<path class="st2" d="M342.9,652.5h-24.7l-41.3-62.6v62.6h-24.7V551h24.7l41.3,62.9V551h24.7V652.5z"/>
			<path class="st2" d="M385.5,570.8v20.5h33.1v19.1h-33.1v22.3h37.4v19.8h-62.1V551h62.1v19.8H385.5z"/>
			<path class="st2" d="M460.7,646.8c-7.9-4.4-14.3-10.6-18.9-18.6c-4.7-8-7-16.9-7-26.8c0-9.9,2.3-18.8,7-26.7
				c4.7-7.9,11-14.1,18.9-18.5c8-4.4,16.7-6.6,26.2-6.6c9.5,0,18.3,2.2,26.2,6.6c7.9,4.4,14.2,10.6,18.8,18.5
				c4.6,7.9,6.9,16.8,6.9,26.7c0,9.9-2.3,18.9-6.9,26.8c-4.6,7.9-10.9,14.1-18.8,18.6c-7.9,4.4-16.6,6.6-26.2,6.6
				C477.4,653.5,468.7,651.3,460.7,646.8z M506.4,622.8c4.9-5.4,7.3-12.5,7.3-21.4c0-9-2.4-16.1-7.3-21.5c-4.9-5.4-11.3-8-19.4-8
				c-8.2,0-14.7,2.7-19.6,8c-4.9,5.3-7.3,12.5-7.3,21.5c0,9,2.4,16.1,7.3,21.5c4.9,5.4,11.4,8,19.6,8
				C495.1,630.9,501.5,628.2,506.4,622.8z"/>
			<path class="st2" d="M554.9,574.8c4.3-7.8,10.4-14,18.1-18.4c7.8-4.4,16.5-6.6,26.4-6.6c12,0,22.4,3.2,30.9,9.5
				c8.6,6.4,14.3,15,17.2,26h-27.2c-2-4.2-4.9-7.5-8.6-9.7c-3.7-2.2-7.9-3.3-12.6-3.3c-7.6,0-13.8,2.7-18.5,8
				c-4.7,5.3-7.1,12.4-7.1,21.2c0,8.9,2.4,15.9,7.1,21.3c4.7,5.3,10.9,8,18.5,8c4.7,0,8.9-1.1,12.6-3.3c3.7-2.2,6.6-5.4,8.6-9.7
				h27.2c-2.9,11-8.6,19.6-17.2,25.9c-8.6,6.3-18.9,9.5-30.9,9.5c-9.8,0-18.6-2.2-26.4-6.6c-7.8-4.4-13.8-10.5-18.1-18.3
				c-4.3-7.8-6.5-16.7-6.5-26.7C548.4,591.6,550.6,582.6,554.9,574.8z"/>
			<path class="st2" d="M684.5,646.8c-7.9-4.4-14.3-10.6-18.9-18.6c-4.7-8-7-16.9-7-26.8c0-9.9,2.3-18.8,7-26.7
				c4.7-7.9,11-14.1,18.9-18.5c8-4.4,16.7-6.6,26.2-6.6c9.5,0,18.3,2.2,26.2,6.6c7.9,4.4,14.2,10.6,18.8,18.5
				c4.6,7.9,6.9,16.8,6.9,26.7c0,9.9-2.3,18.9-6.9,26.8c-4.6,7.9-10.9,14.1-18.8,18.6c-7.9,4.4-16.6,6.6-26.2,6.6
				C701.2,653.5,692.4,651.3,684.5,646.8z M730.2,622.8c4.9-5.4,7.3-12.5,7.3-21.4c0-9-2.4-16.1-7.3-21.5c-4.9-5.4-11.3-8-19.4-8
				c-8.2,0-14.7,2.7-19.6,8c-4.9,5.3-7.3,12.5-7.3,21.5c0,9,2.4,16.1,7.3,21.5c4.9,5.4,11.4,8,19.6,8
				C718.8,630.9,725.3,628.2,730.2,622.8z"/>
			<path class="st2" d="M828.1,652.5L807,614.2h-5.9v38.3h-24.7V551h41.5c8,0,14.8,1.4,20.5,4.2c5.6,2.8,9.8,6.6,12.6,11.5
				s4.2,10.3,4.2,16.3c0,6.7-1.9,12.8-5.7,18.1c-3.8,5.3-9.4,9.1-16.8,11.3l23.4,40.2H828.1z M801.1,596.7h15.3
				c4.5,0,7.9-1.1,10.2-3.3c2.3-2.2,3.4-5.3,3.4-9.4c0-3.8-1.1-6.9-3.4-9.1c-2.3-2.2-5.7-3.3-10.2-3.3h-15.3V596.7z"/>
			<path class="st2" d="M943.9,599.8c-2.7,4.9-6.8,8.8-12.4,11.8c-5.6,3-12.5,4.5-20.8,4.5h-15.3v36.4h-24.7V551h40
				c8.1,0,14.9,1.4,20.5,4.2c5.6,2.8,9.8,6.6,12.6,11.6s4.2,10.6,4.2,16.9C947.9,589.5,946.6,594.9,943.9,599.8z M919.3,593.1
				c2.3-2.2,3.5-5.3,3.5-9.4c0-4-1.2-7.2-3.5-9.4c-2.3-2.2-5.8-3.3-10.6-3.3h-13.4v25.4h13.4C913.5,596.4,917,595.3,919.3,593.1z"/>
		</g>
	</g>
	<g>
		<polygon class="st2" points="623.3,280 623.3,361.1 617.7,357.5 551.4,314.4 551.4,489.2 483.3,489.2 483.1,246.5 571.8,246.5 		
			"/>
		<polygon class="st2" points="716.9,489.2 628.3,489.2 576.7,455.7 576.7,374.5 582.3,378.1 648.6,421.2 648.6,246.5 716.6,246.5 
					"/>
	</g>
</g>
</svg>
