<?xml version="1.0" encoding="UTF-8" standalone="no"?>
<!-- Created with Inkscape (http://www.inkscape.org/) -->

<svg
   version="1.1"
   id="svg1"
   width="1599.9867"
   height="1599.9867"
   viewBox="0 0 1599.9867 1599.9867"
   sodipodi:docname="File Drop.svg"
   inkscape:version="1.4.4 (dcaf3e7, 2026-05-05)"
   xmlns:inkscape="http://www.inkscape.org/namespaces/inkscape"
   xmlns:sodipodi="http://sodipodi.sourceforge.net/DTD/sodipodi-0.dtd"
   xmlns="http://www.w3.org/2000/svg"
   xmlns:svg="http://www.w3.org/2000/svg">
  <defs
     id="defs1" />
  <sodipodi:namedview
     id="namedview1"
     pagecolor="#ffffff"
     bordercolor="#111111"
     borderopacity="1"
     inkscape:showpageshadow="0"
     inkscape:pageopacity="0"
     inkscape:pagecheckerboard="1"
     inkscape:deskcolor="#d1d1d1"
     inkscape:zoom="1.5500129"
     inkscape:cx="676.44599"
     inkscape:cy="813.54162"
     inkscape:window-width="1470"
     inkscape:window-height="839"
     inkscape:window-x="-1"
     inkscape:window-y="518"
     inkscape:window-maximized="0"
     inkscape:current-layer="g1">
    <inkscape:page
       x="0"
       y="0"
       inkscape:label="1"
       id="page1"
       width="1599.9867"
       height="1599.9867"
       margin="0"
       bleed="0" />
  </sodipodi:namedview>
  <g
     id="g1"
     inkscape:groupmode="layer"
     inkscape:label="1">
    <g
       id="group-R5"
       inkscape:export-filename="logo-drop-t.png"
       inkscape:export-xdpi="96"
       inkscape:export-ydpi="96">
      <path
         id="path3"
         d="m 4780.32,5567.98 247.75,143.04 -453.68,785.79 -239.5,-138.27 c -12.6,-7.27 -28.71,-2.96 -35.98,9.64 l -138.94,240.64 -485.83,-280.5 439.97,-762.07 c 97.48,-4.79 204.43,-7.44 316.61,-7.44 5.87,0 11.72,0 17.57,0.02 l 53.25,0.33 c 98.94,1 192.91,4.06 278.78,8.82 z m -312.92,526.81 63.21,-109.48 49.04,28.31 -63.21,109.49 -49.04,-28.32 z m 69.01,-383.57 c 50.35,29.08 92.51,66.96 125.62,110.57 34.33,45.21 58.92,96.69 72.88,150.98 3.64,14.04 -4.8,28.38 -18.84,32.01 -14.03,3.64 -28.37,-4.8 -32.01,-18.84 -12.18,-47.44 -33.78,-92.54 -63.95,-132.29 -28.98,-38.14 -65.9,-71.31 -110.04,-96.8 -44.15,-25.5 -91.34,-40.89 -138.88,-46.91 -49.5,-6.25 -99.35,-2.4 -146.54,10.78 -13.97,3.86 -28.45,-4.34 -32.32,-18.32 -3.86,-13.97 4.33,-28.44 18.3,-32.32 54,-15.06 110.88,-19.49 167.2,-12.37 54.34,6.87 108.22,24.44 158.58,53.51 z m -346.73,223.24 63.22,-109.5 49.03,28.32 -63.2,109.49 -49.05,-28.31 z m -564.7,426.31 530.32,306.18 c 6.62,3.82 14.21,4.44 20.99,2.34 0.94,-0.22 1.87,-0.5 2.8,-0.83 l 409.55,-111.62 0.14,-0.04 3.44,-0.93 c 6.97,-1.89 12.52,-6.42 15.87,-12.22 l 478.78,-829.11 c 7.27,-12.58 2.94,-28.7 -9.65,-35.97 l -73.61,-42.5 c 62.44,-7.53 114.62,-16.25 153.89,-25.85 52.39,-12.81 81.77,-27.18 81.77,-42.37 0,-53.81 -369.09,-97.45 -824.39,-97.45 -455.3,0 -824.39,43.64 -824.39,97.45 0,16.65 35.33,32.34 97.61,46.04 72.8,16.02 182.42,29.36 315.48,38.44 l 47.7,-82.61 -435.94,755.07 c -7.27,12.6 -2.96,28.71 9.64,35.98 v 0"
         style="fill:#131b20;fill-opacity:1;fill-rule:evenodd;stroke:none"
         transform="matrix(0.13333333,0,0,-0.13333333,0,1599.9867)" />
    </g>
    <path
       style="display:none;fill:#10b981;fill-opacity:1;fill-rule:evenodd;stroke:#000000;stroke-width:0.445934"
       d="m 569.81038,858.65553 c -11.45642,-0.21299 -21.08192,-0.65245 -21.38998,-0.97657 -0.30807,-0.32412 -13.53725,-23.08913 -29.3982,-50.5889 -15.86094,-27.49977 -28.95967,-50.2004 -29.10829,-50.44583 -0.31469,-0.5197 -0.18941,-0.59441 36.50159,-21.76488 15.4179,-8.89603 28.24332,-15.9571 28.50093,-15.69126 0.2576,0.26584 4.66748,7.74135 9.79971,16.61224 8.03877,13.89473 9.56142,16.15688 10.99235,16.33087 1.1893,0.14461 6.27834,-2.46642 17.9195,-9.19394 8.94217,-5.16774 16.33772,-9.31667 16.43456,-9.21982 0.0968,0.0968 13.72459,23.64431 30.28388,52.32772 24.92291,43.17055 29.95712,52.29058 29.23275,52.95841 -0.48129,0.44372 -8.0359,4.92368 -16.78802,9.95545 l -15.91295,9.14868 -20.86093,0.31972 c -11.47352,0.17584 -21.87706,0.38624 -23.11899,0.46755 -1.24192,0.0813 -11.63148,-0.0264 -23.08791,-0.23944 z m 20.18471,-14.4158 c 9.96093,-2.64949 19.79772,-8.31368 26.70373,-15.37646 6.09798,-6.2364 10.28253,-12.98444 13.06261,-21.06487 1.70584,-4.95812 1.58643,-7.01198 -0.46193,-7.94527 -2.44499,-1.11401 -3.57031,-0.075 -5.46757,5.04825 -3.66617,9.8999 -8.87099,17.42419 -16.07284,23.23548 -11.88894,9.59337 -26.86565,13.06729 -42.4544,9.84749 -4.55046,-0.93989 -5.9545,-0.31412 -5.9545,2.65382 0,2.30366 0.85201,2.92976 5.16124,3.79277 1.9516,0.39084 4.129,0.84345 4.83867,1.0058 2.69093,0.6156 16.9354,-0.21031 20.64499,-1.19701 z m -19.6038,-23.07504 c 1.37894,-0.77501 2.50717,-1.65392 2.50717,-1.95314 0,-0.29921 -1.77255,-3.58263 -3.93899,-7.29647 l -3.93899,-6.75246 -2.67385,1.5945 c -1.47063,0.87697 -2.67387,1.96387 -2.67387,2.41532 0,1.17188 6.9846,13.40099 7.65404,13.40119 0.30652,10e-5 1.68554,-0.63393 3.06449,-1.40894 z m 36.68236,-21.16213 c 1.38113,-0.7046 2.64925,-1.50454 2.81804,-1.77764 0.16878,-0.27311 -1.4031,-3.3982 -3.49308,-6.94464 -2.08998,-3.54646 -3.88338,-6.68281 -3.98533,-6.96967 -0.1904,-0.53575 -6.28921,2.60858 -6.28921,3.24249 0,0.19391 0.5422,1.25779 1.20489,2.36418 0.66268,1.10638 2.41741,4.11644 3.89939,6.689 1.48198,2.57256 2.83843,4.67738 3.01433,4.67738 0.1759,0 1.44984,-0.57649 2.83097,-1.2811 z"
       id="path4" />
  </g>
</svg>
